<svg xmlns="http://www.w3.org/2000/svg" xmlns:xlink="http://www.w3.org/1999/xlink" width="128" height="128"><defs><linearGradient id="c"><stop offset="0"/><stop offset="0" stop-color="#400000"/><stop offset="1" stop-color="#830000"/></linearGradient><linearGradient id="b"><stop offset="0" stop-color="#b90000" stop-opacity=".882"/><stop offset=".5" stop-color="#b40000" stop-opacity=".471"/><stop offset="1" stop-color="#960000" stop-opacity=".196"/></linearGradient><linearGradient id="a"><stop offset="0"/><stop offset=".5" stop-color="#141414"/><stop offset=".7" stop-color="#2d2d2d"/><stop offset=".85" stop-color="#3c3c3c"/><stop offset="1" stop-color="#505050"/></linearGradient><linearGradient xlink:href="#a" id="d" gradientUnits="userSpaceOnUse" spreadMethod="repeat" x1="29.345" y1="133.565" x2="55.357" y2="144.295"/><radialGradient xlink:href="#b" id="g" cx="278.527" cy="140.235" fx="278.527" fy="140.235" r="10.52" gradientTransform="matrix(1 0 0 1.41065 0 -57.587)" gradientUnits="userSpaceOnUse"/><linearGradient xlink:href="#c" id="e" x1="77.841" y1="163.637" x2="105.526" y2="163.637" gradientUnits="userSpaceOnUse"/><radialGradient xlink:href="#b" id="h" gradientUnits="userSpaceOnUse" gradientTransform="matrix(1 0 0 1.41065 0 -57.587)" cx="278.527" cy="140.235" fx="278.527" fy="140.235" r="10.52"/><linearGradient xlink:href="#c" id="f" gradientUnits="userSpaceOnUse" x1="77.841" y1="163.637" x2="105.526" y2="163.637"/></defs><g transform="translate(-31.027 -25.23)"><ellipse transform="matrix(3.21146 2.38892 -2.45473 2.49513 282.11 -360.76)" cx="43.841" cy="133.565" rx="14.496" ry="14.761" fill="url(#d)"/><path d="M91.58 175.444c-4.333-.078-7.71-1.445-10.128-4.102-2.407-2.656-3.61-6.328-3.61-11.015 0-4.714 1.226-8.412 3.68-11.094 2.464-2.695 5.85-4.043 10.162-4.043 4.32 0 7.71 1.34 10.162 4.024 2.453 2.682 3.68 6.386 3.68 11.113 0 4.14-.946 7.5-2.837 10.078-1.88 2.578-4.564 4.173-8.05 4.785.61.742 1.348 1.276 2.22 1.602.87.325 2 .488 3.387.488h.877v4.805h-.5c-2.177 0-3.994-.534-5.45-1.602s-2.654-2.747-3.594-5.04zm.104-2.363c2.19 0 6.62-1.047 8.47-3.144 1.848-2.096 3.14-5.3 3.14-9.61 0-4.322-1.292-7.532-3.14-9.628-1.85-2.096-4.673-3.145-8.47-3.145-3.778 0-6.604 1.06-8.47 3.184-1.85 2.108-3.14 5.306-3.14 9.59 0 4.27 1.28 7.473 3.14 9.59 1.86 2.115 4.692 3.164 8.47 3.164z" fill="url(#f)" transform="matrix(4.62356 0 0 3.46935 -328.878 -478.486)" style="line-height:200%;-inkscape-font-specification:'Serif Bold'" font-weight="bold" font-size="40" font-family="Serif" letter-spacing="0" word-spacing="0"/><text style="line-height:200%" x="233.093" y="211.915" font-size="40" font-family="Sans" letter-spacing="0" word-spacing="0"/><text style="line-height:200%" x="236.881" y="191.46" font-size="40" font-family="Sans" letter-spacing="0" word-spacing="0"/><text style="line-height:200%" x="240.669" y="165.448" font-size="40" font-family="Sans" letter-spacing="0" word-spacing="0"/><text style="line-height:200%" x="263.145" y="157.62" font-size="40" font-family="Sans" letter-spacing="0" word-spacing="0"/><path d="M275.927 133.795l-7.92 20.8h3.84l5.84-16.8 4.88 14.16c.6 1.72 1.16 3.12 3.24 3.12.88 0 1.96-.32 3.24-.96l-.8-2.8-1.36.44c-.502.163-.92-.28-1.12-.76l-6.64-17.52c-1.4-3.64-2.6-8.08-7.04-8.08-.6 0-1.36.16-2.24.48l-.4 3.28s1.4-.32 2.16-.32c2.64 0 3.2 1.76 4.32 4.96" style="-inkscape-font-specification:FreeSans" fill="url(#h)" transform="matrix(3.36613 0 0 2.4042 -839.572 -260.308)" font-size="40" font-family="FreeSans" letter-spacing="0" word-spacing="0"/><text style="line-height:200%" x="35.509" y="152.804" transform="scale(1.06607 .93802)" font-size="18.003" font-family="Sans" letter-spacing="0" word-spacing="0"><tspan x="35.509" y="152.804" fill="#6d0000">sprite</tspan></text></g></svg>